<!-- Variation 04: Center Control - v2 with precise transform -->
<svg width="256" height="256" viewBox="0 0 256 256" xmlns="http://www.w3.org/2000/svg">
  <defs>
    <linearGradient id="b_fill" x1="0%" y1="0%" x2="100%" y2="100%"><stop offset="0%" stop-color="#0c8237"/><stop offset="100%" stop-color="#0a6f2f"/></linearGradient>
    <radialGradient id="w_disk" cx="50%" cy="50%" r="50%" fx="40%" fy="40%"><stop offset="0%" stop-color="#fff"/><stop offset="100%" stop-color="#e0e0e0"/></radialGradient>
    <radialGradient id="b_disk" cx="50%" cy="50%" r="50%" fx="40%" fy="40%"><stop offset="0%" stop-color="#333"/><stop offset="100%" stop-color="#0a0a0a"/></radialGradient>
    <filter id="shadow" x="-30%" y="-30%" width="160%" height="160%"><feDropShadow dx="3" dy="5" stdDeviation="3" flood-color="#000" flood-opacity="0.25"/></filter>
    <filter id="glow"><feGaussianBlur in="SourceGraphic" stdDeviation="3"/></filter>
  </defs>
  <rect width="256" height="256" rx="50" ry="50" fill="#083d1a"/>
  <g transform="translate(128 138) scale(0.9) matrix(1, -0.05, 0.2, 1, 0, 0)">
    <g filter="url(#shadow)">
      <rect x="-100" y="-100" width="200" height="200" fill="url(#b_fill)"/>
      <g stroke="#083d1a" stroke-width="2" stroke-opacity="0.8">
        <path d="M-100 -50 L 100 -50 M-100 0 L 100 0 M-100 50 L 100 50"/>
        <path d="M-50 -100 L -50 100 M0 -100 L 0 100 M50 -100 L 50 100"/>
      </g>
      <circle cx="-25" cy="-25" r="22" fill="url(#w_disk)"/>
      <circle cx="25" cy="-25" r="22" fill="url(#b_disk)"/>
      <circle cx="-25" cy="25" r="22" fill="url(#b_disk)"/>
      <circle cx="25" cy="25" r="22" fill="url(#w_disk)"/>
    </g>
  </g>
  <g transform="translate(128, 128)" filter="url(#glow)" opacity="0.2">
      <circle cx="0" cy="0" r="20" fill="#fff"/>
  </g>
</svg>