<svg width="256" height="256" viewBox="0 0 256 256" xmlns="http://www.w3.org/2000/svg">
  <defs>
    <linearGradient id="board_fill" x1="0%" y1="0%" x2="100%" y2="100%"><stop offset="0%" stop-color="#0c8237" /><stop offset="100%" stop-color="#0a6f2f" /></linearGradient>
    <radialGradient id="white_disk_grad" cx="50%" cy="50%" r="50%" fx="40%" fy="40%"><stop offset="0%" stop-color="#ffffff" /><stop offset="100%" stop-color="#e0e0e0" /></radialGradient>
    <radialGradient id="black_disk_grad" cx="50%" cy="50%" r="50%" fx="40%" fy="40%"><stop offset="0%" stop-color="#333333" /><stop offset="100%" stop-color="#0a0a0a" /></radialGradient>
    <filter id="disk_shadow" x="-20%" y="-20%" width="140%" height="140%"><feDropShadow dx="2" dy="3" stdDeviation="2" flood-color="#000000" flood-opacity="0.2"/></filter>
    <filter id="ai_glow" x="-50%" y="-50%" width="200%" height="200%">
        <feGaussianBlur in="SourceGraphic" stdDeviation="2" />
    </filter>
  </defs>

  <!-- Main Squircle Frame -->
  <rect width="256" height="256" rx="50" ry="50" fill="#083d1a"/>

  <!-- Board with Perspective -->
  <g transform="translate(128, 128) rotate(-15) scale(1.2)">
    <path d="M -100 -100 L 100 -100 L 100 100 L -100 100 Z" fill="url(#board_fill)" />
    <!-- Standard Grid Lines -->
    <g stroke="#083d1a" stroke-width="1.5" stroke-opacity="0.8">
        <line x1="-100" y1="-50" x2="100" y2="-50"/><line x1="-100" y1="0" x2="100" y2="0"/><line x1="-100" y1="50" x2="100" y2="50"/>
        <line x1="-50" y1="-100" x2="-50" y2="100"/><line x1="0" y1="-100" x2="0" y2="100"/><line x1="50" y1="-100" x2="50" y2="100"/>
    </g>
    <!-- AI Analysis Grid -->
    <g stroke="#2dd4bf" stroke-width="0.5" stroke-opacity="0.3">
        <line x1="-100" y1="-75" x2="100" y2="-75"/><line x1="-100" y1="-25" x2="100" y2="-25"/><line x1="-100" y1="25" x2="100" y2="25"/><line x1="-100" y1="75" x2="100" y2="75"/>
        <line x1="-75" y1="-100" x2="-75" y2="100"/><line x1="-25" y1="-100" x2="-25" y2="100"/><line x1="25" y1="-100" x2="25" y2="100"/><line x1="75" y1="-100" x2="75" y2="100"/>
    </g>
  </g>

  <!-- Solid Disks -->
  <g filter="url(#disk_shadow)">
    <circle cx="80" cy="180" r="22" fill="url(#white_disk_grad)"/>
    <circle cx="180" cy="80" r="22" fill="url(#black_disk_grad)"/>
  </g>

  <!-- AI Vision Element -->
  <g transform="translate(128, 128)">
    <!-- Hologram/Wireframe Disk -->
    <g filter="url(#ai_glow)" stroke="#2dd4bf">
        <circle cx="0" cy="0" r="22" fill="none" stroke-width="2" stroke-opacity="1"/>
        <circle cx="0" cy="0" r="18" fill="none" stroke-width="1" stroke-opacity="0.7"/>
    </g>
    <!-- AI Path Lines -->
    <g stroke="#2dd4bf" stroke-width="1.5" stroke-opacity="0.8" fill="none" filter="url(#ai_glow)">
        <path d="M 0 0 Q -20 -20 -48 -48"/>
        <path d="M 0 0 Q 20 20 52 52"/>
    </g>
  </g>
</svg>