<!-- Border Variation: Neon -->
<svg width="256" height="256" viewBox="0 0 256 256" xmlns="http://www.w3.org/2000/svg">
  <defs>
    <linearGradient id="board_grad" x1="50%" y1="0%" x2="50%" y2="100%"><stop offset="0%" stop-color="#0c8237"/><stop offset="100%" stop-color="#085c25"/></linearGradient>
    <radialGradient id="w_disk" cx="50%" cy="50%" r="50%" fx="40%" fy="40%"><stop offset="0%" stop-color="#fff"/><stop offset="100%" stop-color="#e0e0e0"/></radialGradient>
    <radialGradient id="b_disk" cx="50%" cy="50%" r="50%" fx="40%" fy="40%"><stop offset="0%" stop-color="#333"/><stop offset="100%" stop-color="#0a0a0a"/></radialGradient>
    <filter id="shadow" x="-30%" y="-30%" width="160%" height="160%"><feDropShadow dx="3" dy="4" stdDeviation="4" flood-color="#000" flood-opacity="0.3"/></filter>
    <filter id="neon_glow" x="-50%" y="-50%" width="200%" height="200%"><feGaussianBlur in="SourceGraphic" stdDeviation="4"/></filter>
    <clipPath id="clip"><path d="M 50,12 C 12,12 12,12 12,50 L 12,206 C 12,244 12,244 50,244 L 206,244 C 244,244 244,244 244,206 L 244,50 C 244,12 244,12 206,12 Z"/></clipPath>
  </defs>
  <rect width="256" height="256" rx="50" ry="50" fill="#111827"/>
  <g filter="url(#neon_glow)">
    <path d="M 50,4 C 14,4 4,14 4,50 L 4,206 C 4,242 14,252 50,252 L 206,252 C 242,252 252,242 252,206 L 252,50 C 252,14 242,4 206,4 Z" fill="none" stroke="#2dd4bf" stroke-width="3"/>
    <path d="M 50,10 C 18,10 10,18 10,50 L 10,206 C 10,238 18,246 50,246 L 206,246 C 238,246 246,238 246,206 L 246,50 C 246,18 238,10 206,10 Z" fill="none" stroke="#d946ef" stroke-width="2" opacity="0.8"/>
  </g>
  <g transform="translate(12, 12)">
    <path d="M 38,0 C 0,0 0,0 0,38 L 0,194 C 0,232 0,232 38,232 L 194,232 C 232,232 232,232 232,194 L 232,38 C 232,0 232,0 194,0 Z" fill="url(#board_grad)"/>
    <g clip-path="url(#clip)" transform="translate(-12, -12)" stroke="#06441e" stroke-width="3" stroke-opacity="0.8">
      <line x1="0" y1="128" x2="256" y2="128"/><line x1="0" y1="48" x2="256" y2="48"/><line x1="0" y1="208" x2="256" y2="208"/>
      <line x1="128" y1="0" x2="128" y2="256"/><line x1="48" y1="0" x2="48" y2="256"/><line x1="208" y1="0" x2="208" y2="256"/>
    </g>
    <g filter="url(#shadow)" transform="translate(-12, -12)">
      <circle cx="88" cy="88" r="32" fill="url(#w_disk)"/><circle cx="168" cy="88" r="32" fill="url(#b_disk)"/><circle cx="88" cy="168" r="32" fill="url(#b_disk)"/><circle cx="168" cy="168" r="32" fill="url(#w_disk)"/>
    </g>
  </g>
</svg>