<!-- AI Theme: Neural Net -->
<svg width="256" height="256" viewBox="0 0 256 256" xmlns="http://www.w3.org/2000/svg">
  <defs>
    <radialGradient id="w_disk" cx="50%" cy="50%" r="50%" fx="40%" fy="40%"><stop offset="0%" stop-color="#fff"/><stop offset="100%" stop-color="#e0e0e0"/></radialGradient>
    <radialGradient id="b_disk" cx="50%" cy="50%" r="50%" fx="40%" fy="40%"><stop offset="0%" stop-color="#333"/><stop offset="100%" stop-color="#0a0a0a"/></radialGradient>
    <filter id="glow" x="-50%" y="-50%" width="200%" height="200%"><feGaussianBlur in="SourceGraphic" stdDeviation="3"/></filter>
  </defs>
  <rect width="256" height="256" rx="50" ry="50" fill="#1e1b4b"/>
  <g opacity="0.5" filter="url(#glow)">
    <g stroke="#a78bfa">
      <line x1="64" y1="64" x2="128" y2="128"/><line x1="64" y1="192" x2="128" y2="128"/>
      <line x1="192" y1="64" x2="128" y2="128"/><line x1="192" y1="192" x2="128" y2="128"/>
      <line x1="64" y1="64" x2="192" y2="64"/><line x1="64" y1="192" x2="192" y2="192"/>
      <line x1="64" y1="64" x2="192" y2="192"/><line x1="192" y1="64" x2="64" y2="192"/>
    </g>
    <g fill="#a78bfa">
      <circle cx="128" cy="128" r="4"/><circle cx="64" cy="64" r="4"/><circle cx="64" cy="192" r="4"/>
      <circle cx="192" cy="64" r="4"/><circle cx="192" cy="192" r="4"/>
    </g>
  </g>
  <g>
    <circle cx="128" cy="128" r="18" fill="url(#w_disk)"/>
    <circle cx="64" cy="64" r="18" fill="url(#b_disk)"/>
    <circle cx="192" cy="192" r="18" fill="url(#w_disk)"/>
  </g>
</svg>