<!-- AI Theme: Deconstructed Disc -->
<svg width="256" height="256" viewBox="0 0 256 256" xmlns="http://www.w3.org/2000/svg">
  <defs>
    <linearGradient id="board_grad" x1="50%" y1="0%" x2="50%" y2="100%"><stop offset="0%" stop-color="#0c8237"/><stop offset="100%" stop-color="#085c25"/></linearGradient>
    <radialGradient id="w_disk" cx="50%" cy="50%" r="50%" fx="40%" fy="40%"><stop offset="0%" stop-color="#fff"/><stop offset="100%" stop-color="#e0e0e0"/></radialGradient>
    <filter id="shadow" x="-30%" y="-30%" width="160%" height="160%"><feDropShadow dx="2" dy="3" stdDeviation="3" flood-color="#000" flood-opacity="0.3"/></filter>
    <filter id="glow"><feGaussianBlur in="SourceGraphic" stdDeviation="1"/></filter>
    <clipPath id="clip"><path d="M 50,0 C 10,0 0,10 0,50 L 0,206 C 0,246 10,256 50,256 L 206,256 C 246,256 256,246 256,206 L 256,50 C 256,10 246,0 206,0 Z"/></clipPath>
    <clipPath id="deconstruct_clip"><path d="M 0 0 L 256 0 L 256 256 L 0 256 Z M 128 128 A 60 60 0 0 1 188 128 L 200 100 L 200 150 Z"/></clipPath>
  </defs>
  <path d="M 50,0 C 10,0 0,10 0,50 L 0,206 C 0,246 10,256 50,256 L 206,256 C 246,256 256,246 256,206 L 256,50 C 256,10 246,0 206,0 Z" fill="url(#board_grad)"/>
  <g clip-path="url(#clip)" stroke="#06441e" stroke-width="2" stroke-opacity="0.8">
    <line x1="0" y1="128" x2="256" y2="128"/><line x1="0" y1="88" x2="256" y2="88"/><line x1="0" y1="168" x2="256" y2="168"/><line x1="0" y1="48" x2="256" y2="48"/><line x1="0" y1="208" x2="256" y2="208"/>
    <line x1="128" y1="0" x2="128" y2="256"/><line x1="88" y1="0" x2="88" y2="256"/><line x1="168" y1="0" x2="168" y2="256"/><line x1="48" y1="0" x2="48" y2="256"/><line x1="208" y1="0" x2="208" y2="256"/>
  </g>
  <g filter="url(#shadow)">
    <circle cx="128" cy="128" r="60" fill="url(#w_disk)" clip-path="url(#deconstruct_clip)"/>
  </g>
  <g filter="url(#glow)" fill="#fff">
    <rect x="180" y="110" width="8" height="8" opacity="0.9"/>
    <rect x="192" y="120" width="10" height="10" opacity="1"/>
    <rect x="185" y="135" width="6" height="6" opacity="0.8"/>
    <rect x="200" y="105" width="4" height="4" opacity="0.7"/>
    <rect x="205" y="130" width="5" height="5" opacity="0.9"/>
    <rect x="195" y="145" width="7" height="7" opacity="0.8"/>
  </g>
</svg>