<!-- Final Concept: Realistic Sharp Version -->
<svg width="256" height="256" viewBox="0 0 256 256" xmlns="http://www.w3.org/2000/svg">
  <defs>
    <linearGradient id="wood_grad" x1="0%" y1="0%" x2="100%" y2="100%">
      <stop offset="0%" stop-color="#8c5a2b" />
      <stop offset="50%" stop-color="#5c3d1d" />
      <stop offset="100%" stop-color="#8c5a2b" />
    </linearGradient>
    <radialGradient id="real_w_disk_sharp" cx="50%" cy="50%" r="50%" fx="35%" fy="35%">
      <stop offset="0%" stop-color="#fff"/>
      <stop offset="80%" stop-color="#e5e5e5"/>
      <stop offset="95%" stop-color="#888"/>
      <stop offset="100%" stop-color="#a0a0a0"/>
    </radialGradient>
    <radialGradient id="real_b_disk_sharp" cx="50%" cy="50%" r="50%" fx="35%" fy="35%">
      <stop offset="0%" stop-color="#777"/>
      <stop offset="70%" stop-color="#1a1a1a"/>
      <stop offset="95%" stop-color="#000"/>
      <stop offset="100%" stop-color="#222"/>
    </radialGradient>
    <filter id="sharp_shadow" x="-30%" y="-30%" width="160%" height="160%">
      <feDropShadow dx="2" dy="3" stdDeviation="1.5" flood-color="#000" flood-opacity="0.3"/>
    </filter>
    <clipPath id="clip"><path d="M 50,0 C 10,0 0,10 0,50 L 0,206 C 0,246 10,256 50,256 L 206,256 C 246,256 256,246 256,206 L 256,50 C 256,10 246,0 206,0 Z"/></clipPath>
  </defs>

  <!-- Outer Frame -->
  <rect width="256" height="256" rx="50" ry="50" fill="#1c1917"/>
  <!-- Inner Bevel -->
  <path d="M 50,4 C 14,4 4,14 4,50 L 4,206 C 4,242 14,252 50,252 L 206,252 C 242,252 252,242 252,206 L 252,50 C 252,14 242,4 206,4 Z" fill="#44403c"/>

  <!-- Wooden Board -->
  <g transform="translate(8, 8)">
    <path d="M 42,0 C 6,0 0,6 0,42 L 0,198 C 0,234 6,240 42,240 L 198,240 C 234,240 240,234 240,198 L 240,42 C 240,6 234,0 198,0 Z" fill="url(#wood_grad)"/>
    <g clip-path="url(#clip)" transform="translate(-8, -8)" stroke="#452e14" stroke-width="1.5" stroke-opacity="0.6">
        <line x1="0" y1="128" x2="256" y2="128"/><line x1="0" y1="88" x2="256" y2="88"/><line x1="0" y1="168" x2="256" y2="168"/><line x1="0" y1="48" x2="256" y2="48"/><line x1="0" y1="208" x2="256" y2="208"/>
        <line x1="128" y1="0" x2="128" y2="256"/><line x1="88" y1="0" x2="88" y2="256"/><line x1="168" y1="0" x2="168" y2="256"/><line x1="48" y1="0" x2="48" y2="256"/><line x1="208" y1="0" x2="208" y2="256"/>
    </g>
    <g filter="url(#sharp_shadow)" transform="translate(-8, -8)">
      <circle cx="108" cy="108" r="18" fill="url(#real_w_disk_sharp)"/>
      <circle cx="148" cy="108" r="18" fill="url(#real_b_disk_sharp)"/>
      <circle cx="108" cy="148" r="18" fill="url(#real_b_disk_sharp)"/>
      <circle cx="148" cy="148" r="18" fill="url(#real_w_disk_sharp)"/>
    </g>
  </g>
</svg>