<svg width="512" height="512" viewBox="0 0 512 512" xmlns="http://www.w3.org/2000/svg">
  <defs>
    <!-- 우주 배경 그라디언트 -->
    <radialGradient id="spaceBackground" cx="50%" cy="30%" r="70%">
      <stop offset="0%" style="stop-color:#1a2251;stop-opacity:1" />
      <stop offset="60%" style="stop-color:#0e1329;stop-opacity:1" />
      <stop offset="100%" style="stop-color:#080a1a;stop-opacity:1" />
    </radialGradient>

    <!-- 오델로 돌 그라디언트 -->
    <radialGradient id="whiteStone" cx="30%" cy="30%" r="70%">
      <stop offset="0%" style="stop-color:#ffffff;stop-opacity:1" />
      <stop offset="70%" style="stop-color:#e8e8e8;stop-opacity:1" />
      <stop offset="100%" style="stop-color:#d0d0d0;stop-opacity:1" />
    </radialGradient>

    <radialGradient id="blackStone" cx="30%" cy="30%" r="70%">
      <stop offset="0%" style="stop-color:#404040;stop-opacity:1" />
      <stop offset="70%" style="stop-color:#202020;stop-opacity:1" />
      <stop offset="100%" style="stop-color:#000000;stop-opacity:1" />
    </radialGradient>

    <!-- 별빛 효과 -->
    <filter id="glow">
      <feGaussianBlur stdDeviation="2" result="coloredBlur"/>
      <feMerge>
        <feMergeNode in="coloredBlur"/>
        <feMergeNode in="SourceGraphic"/>
      </feMerge>
    </filter>
  </defs>

  <!-- 우주 배경 -->
  <rect width="512" height="512" fill="url(#spaceBackground)"/>

  <!-- 별빛들 -->
  <circle cx="80" cy="90" r="2" fill="#facc15" opacity="0.8" filter="url(#glow)"/>
  <circle cx="450" cy="120" r="1.5" fill="#ffffff" opacity="0.6"/>
  <circle cx="120" cy="180" r="1" fill="#facc15" opacity="0.9"/>
  <circle cx="400" cy="80" r="1" fill="#ffffff" opacity="0.7"/>
  <circle cx="60" cy="300" r="1.5" fill="#facc15" opacity="0.8"/>
  <circle cx="480" cy="280" r="1" fill="#ffffff" opacity="0.6"/>
  <circle cx="430" cy="420" r="2" fill="#facc15" opacity="0.9" filter="url(#glow)"/>
  <circle cx="90" cy="450" r="1" fill="#ffffff" opacity="0.5"/>
  <circle cx="470" cy="350" r="1.5" fill="#facc15" opacity="0.7"/>

  <!-- 오델로 보드 (간소화된 6x6) -->
  <g transform="translate(156, 156)">
    <!-- 보드 배경 -->
    <rect width="200" height="200" fill="#2a4a3a" stroke="#facc15" stroke-width="2" rx="8" opacity="0.9"/>

    <!-- 보드 격자 -->
    <g stroke="#facc15" stroke-width="1" opacity="0.4">
      <!-- 세로선 -->
      <line x1="33.33" y1="8" x2="33.33" y2="192"/>
      <line x1="66.66" y1="8" x2="66.66" y2="192"/>
      <line x1="100" y1="8" x2="100" y2="192"/>
      <line x1="133.33" y1="8" x2="133.33" y2="192"/>
      <line x1="166.66" y1="8" x2="166.66" y2="192"/>

      <!-- 가로선 -->
      <line x1="8" y1="33.33" x2="192" y2="33.33"/>
      <line x1="8" y1="66.66" x2="192" y2="66.66"/>
      <line x1="8" y1="100" x2="192" y2="100"/>
      <line x1="8" y1="133.33" x2="192" y2="133.33"/>
      <line x1="8" y1="166.66" x2="192" y2="166.66"/>
    </g>

    <!-- 오델로 돌들 -->
    <!-- 흰 돌들 -->
    <circle cx="50" cy="84" r="12" fill="url(#whiteStone)" stroke="#d0d0d0" stroke-width="0.5"/>
    <circle cx="84" cy="50" r="12" fill="url(#whiteStone)" stroke="#d0d0d0" stroke-width="0.5"/>
    <circle cx="116" cy="84" r="12" fill="url(#whiteStone)" stroke="#d0d0d0" stroke-width="0.5"/>
    <circle cx="150" cy="116" r="12" fill="url(#whiteStone)" stroke="#d0d0d0" stroke-width="0.5"/>

    <!-- 검은 돌들 -->
    <circle cx="84" cy="84" r="12" fill="url(#blackStone)" stroke="#101010" stroke-width="0.5"/>
    <circle cx="116" cy="50" r="12" fill="url(#blackStone)" stroke="#101010" stroke-width="0.5"/>
    <circle cx="50" cy="116" r="12" fill="url(#blackStone)" stroke="#101010" stroke-width="0.5"/>
    <circle cx="116" cy="116" r="12" fill="url(#blackStone)" stroke="#101010" stroke-width="0.5"/>
    <circle cx="150" cy="150" r="12" fill="url(#blackStone)" stroke="#101010" stroke-width="0.5"/>
  </g>

  <!-- 추가 별빛 효과 (미묘하게) -->
  <circle cx="256" cy="50" r="1" fill="#facc15" opacity="0.5"/>
  <circle cx="180" cy="400" r="1" fill="#ffffff" opacity="0.4"/>
  <circle cx="350" cy="460" r="1" fill="#facc15" opacity="0.6"/>
</svg>