<svg width="256" height="256" viewBox="0 0 256 256" xmlns="http://www.w3.org/2000/svg">
  <defs>
    <linearGradient id="board_grad" x1="50%" y1="0%" x2="50%" y2="100%">
      <stop offset="0%" stop-color="#0c8237"/>
      <stop offset="100%" stop-color="#085c25"/>
    </linearGradient>
    <radialGradient id="w_disk" cx="50%" cy="50%" r="50%" fx="40%" fy="40%"><stop offset="0%" stop-color="#fff"/><stop offset="100%" stop-color="#e0e0e0"/></radialGradient>
    <radialGradient id="b_disk" cx="50%" cy="50%" r="50%" fx="40%" fy="40%"><stop offset="0%" stop-color="#333"/><stop offset="100%" stop-color="#0a0a0a"/></radialGradient>
    <filter id="shadow" x="-30%" y="-30%" width="160%" height="160%"><feDropShadow dx="2" dy="4" stdDeviation="3" flood-color="#000" flood-opacity="0.3"/></filter>
    <filter id="glow"><feGaussianBlur in="SourceGraphic" stdDeviation="1.5"/></filter>
  </defs>

  <!-- The Board is the Frame -->
  <path d="M 50,0 C 10,0 0,10 0,50 L 0,206 C 0,246 10,256 50,256 L 206,256 C 246,256 256,246 256,206 L 256,50 C 256,10 246,0 206,0 Z" fill="url(#board_grad)"/>

  <!-- Perspective Grid -->
  <g stroke="#06441e" stroke-width="2" stroke-opacity="0.8">
    <!-- Horizontal Lines (curved) -->
    <path d="M 0 180 Q 128 190 256 180" fill="none"/>
    <path d="M 0 128 Q 128 135 256 128" fill="none"/>
    <path d="M 0 88 Q 128 92 256 88" fill="none"/>
    <path d="M 0 58 Q 128 60 256 58" fill="none"/>
    <!-- Vertical Lines (angled) -->
    <line x1="128" y1="0" x2="128" y2="256"/>
    <line x1="64" y1="0" x2="20" y2="256"/>
    <line x1="192" y1="0" x2="236" y2="256"/>
    <line x1="224" y1="0" x2="290" y2="256"/>
    <line x1="32" y1="0" x2="-34" y2="256"/>
  </g>

  <!-- Disks in Perspective -->
  <g filter="url(#shadow)">
    <ellipse cx="102" cy="108" rx="20" ry="18" fill="url(#w_disk)"/>
    <ellipse cx="154" cy="108" rx="20" ry="18" fill="url(#b_disk)"/>
    <circle cx="92" cy="154" r="24" fill="url(#b_disk)"/>
    <circle cx="164" cy="154" r="24" fill="url(#w_disk)"/>
  </g>

  <!-- Particles -->
  <g transform="translate(164, 154)" filter="url(#glow)" opacity="0.7">
    <circle cx="-30" cy="-15" r="3" fill="#fff"/>
    <circle cx="-10" cy="-28" r="2" fill="#fff"/>
    <circle cx="25" cy="-20" r="2.5" fill="#fff"/>
  </g>
</svg>